<?xml version="1.0" encoding="UTF-8" standalone="no"?>
<!DOCTYPE svg PUBLIC "-//W3C//DTD SVG 1.1//EN"
"http://www.w3.org/Graphics/SVG/1.1/DTD/svg11.dtd">


<!-- Page 1 -->
<svg x="0" y="0" width="550" height="440" viewBox="0 0 550 440" version="1.1" xmlns="http://www.w3.org/2000/svg" xmlns:xlink="http://www.w3.org/1999/xlink"
style="display: block;margin-left: auto;margin-right: auto;">
<defs>
<clipPath id="c_1"><path d="M0,0H550V440H0Z"/></clipPath>
<clipPath id="c0"><path d="M339,354.3V304.8H510.1v49.5Z"/></clipPath>
<clipPath id="c1"><path d="M73.8,384.5V15.3H526.2V384.5Z"/></clipPath>

<style type="text/css"><![CDATA[
text { white-space: pre; }
path, image { pointer-events: none; }
text::-moz-selection {
	color: transparent;
	background: rgba(0, 106, 173, 0.4);
}
text::selection {
	color: transparent;
	background: rgba(0, 106, 173, 0.4);
}

.s1{
font-size: 18.33px;
font-family: Helvetica_k;
fill: TRANSPARENT;
}
.s2{
font-size: 21.39px;
font-family: Helvetica_k;
fill: TRANSPARENT;
}
.s3{
font-size: 13.75px;
font-family: Helvetica_p;
fill: TRANSPARENT;
}
.s4{
font-size: 13.75px;
font-family: Helvetica_k;
fill: TRANSPARENT;
}

.g0{
fill: none;
stroke: #000000;
stroke-width: 0.763;
stroke-linecap: round;
stroke-linejoin: miter;
stroke-dasharray: 1,6;
}
.g1{
fill: none;
stroke: #000000;
stroke-width: 0.763;
stroke-linecap: round;
stroke-linejoin: miter;
stroke-dasharray: 1,7;
}
.g2{
fill: none;
stroke: #CD411B;
stroke-width: 1.527;
stroke-linecap: butt;
stroke-linejoin: miter;
}
.g3{
fill: #CD411B;
}
.g4{
fill: none;
stroke: #FD9C32;
stroke-width: 1.527;
stroke-linecap: butt;
stroke-linejoin: miter;
}
.g5{
fill: #FD9C32;
}
.g6{
fill: #FFFFFF;
}
.g7{
fill: none;
stroke: #000000;
stroke-width: 0.763;
stroke-linecap: butt;
stroke-linejoin: miter;
}
.g8{
fill: none;
stroke: #000000;
stroke-width: 3.055;
stroke-linecap: butt;
stroke-linejoin: miter;
}
.g9{
fill: none;
stroke: #000000;
stroke-width: 0.763;
stroke-linecap: square;
stroke-linejoin: miter;
}

]]></style>

<path d="M573,589c0,0,99,0,161,42c0,0,62,43,62,150c0,0,0,121,-89,165c0,0,-49,23,-134,23H280V589ZM131,0V1096H622c0,0,145,0,234,-82c0,0,90,-83,90,-232c0,0,0,-128,-80,-223c0,0,-80,-96,-244,-96H280V0Z"
id="f0_f"
transform="scale(0.001,-0.001)"/>

<path d="M170,-327c0,0,-28,0,-43,3c0,0,-16,2,-38,8v122c0,0,35,-10,51,-12c0,0,15,-2,27,-2c0,0,38,0,55,12c0,0,18,12,29,30c0,0,4,6,27,62c0,0,23,55,34,82L16,799H168L383,149L598,799H747c0,0,-29,-77,-126,-351c0,0,-73,-205,-123,-335c0,0,-116,-305,-164,-372c0,0,-47,-68,-164,-68Z"
id="f0_z"
transform="scale(0.001,-0.001)"/>

<path d="M606,101c0,0,46,0,86,6c0,0,41,6,71,25L642,226l75,92L860,206c0,0,68,78,92,174c0,0,25,97,25,185c0,0,0,193,-101,311c0,0,-102,118,-277,118c0,0,-178,0,-282,-113C317,881,213,768,213,533c0,0,0,-198,100,-315c0,0,100,-117,293,-117ZM1045,-87L876,42C876,42,815,8,743,-11c0,0,-71,-20,-155,-20c0,0,-256,0,-401,166C187,135,60,297,60,542c0,0,0,222,110,381c0,0,142,202,420,202c0,0,290,0,429,-186c0,0,109,-145,109,-372c0,0,0,-106,-26,-204c0,0,-39,-149,-132,-243L1119,3l-74,-90Z"
id="f0_g"
transform="scale(0.001,-0.001)"/>

<path d="M559,-27c0,0,-278,0,-377,197c0,0,-55,109,-55,311v615H278V419c0,0,0,-119,45,-198c0,0,66,-119,224,-119c0,0,190,0,258,129c0,0,37,70,37,188v677H992V481c0,0,0,-202,-54,-311C938,170,838,-27,559,-27Z"
id="f0_i"
transform="scale(0.001,-0.001)"/>

<path d="M581,127c0,0,137,0,196,79c0,0,37,50,37,121c0,0,0,119,-108,162c0,0,-57,23,-151,23H258V127ZM530,633c0,0,95,0,148,26c0,0,83,41,83,147c0,0,0,108,-88,145c0,0,-50,21,-148,21H258V633ZM112,0V1096H586c0,0,194,0,275,-115c0,0,48,-68,48,-157c0,0,0,-103,-59,-170c0,0,-30,-35,-88,-64c0,0,85,-32,126,-72c0,0,74,-72,74,-198c0,0,0,-106,-67,-192C895,128,796,0,578,0Z"
id="f0_c"
transform="scale(0.001,-0.001)"/>

<path d="M605,101c0,0,196,0,284,140c0,0,88,141,88,324c0,0,0,193,-101,311c0,0,-102,118,-277,118c0,0,-171,0,-278,-116C321,878,213,761,213,533c0,0,0,-182,92,-307c0,0,93,-125,300,-125ZM587,-31c0,0,-253,0,-398,166C189,135,60,296,60,542c0,0,0,222,110,381c0,0,142,202,420,202c0,0,290,0,429,-186c0,0,109,-146,109,-372c0,0,0,-246,-124,-408c0,0,-147,-190,-417,-190Z"
id="f0_e"
transform="scale(0.001,-0.001)"/>

<path d="M398,0V757H147V859c0,0,145,15,202,48c0,0,58,33,86,157H541V0Z"
id="f0_8"
transform="scale(0.001,-0.001)"/>

<path d="M131,0V162H286V0Z"
id="f0_6"
transform="scale(0.001,-0.001)"/>

<path d="M412,94c0,0,104,0,166,92c0,0,62,93,62,345c0,0,0,182,-44,299c0,0,-45,117,-175,117c0,0,-118,0,-173,-111c0,0,-55,-111,-55,-328c0,0,0,-164,35,-263c0,0,54,-151,184,-151Zm1,-121c0,0,-193,0,-287,166c0,0,-78,139,-78,374c0,0,0,182,47,313c0,0,88,243,319,243c0,0,207,0,300,-171c0,0,71,-132,71,-362c0,0,0,-218,-65,-360c0,0,-94,-203,-307,-203Z"
id="f0_7"
transform="scale(0.001,-0.001)"/>

<path d="M505,378V862L163,378ZM507,0V261H39V393l489,679H641V378H799V261H641V0Z"
id="f0_b"
transform="scale(0.001,-0.001)"/>

<path d="M569,0L371,300L178,0H8L289,409L22,799H196L380,518L565,799l164,-4L460,409L741,0Z"
id="f0_y"
transform="scale(0.001,-0.001)"/>

<path d="M132,0V689H21V795H132V920c0,0,3,84,29,123c0,0,47,69,181,69c0,0,13,0,26,-1c0,0,14,-1,31,-2V987c0,0,-21,1,-31,1c0,0,-9,1,-17,1c0,0,-62,0,-74,-32c0,0,-12,-32,-12,-162H399V689H265V0Z"
id="f0_n"
transform="scale(0.001,-0.001)"/>

<path d="M345,88c0,0,71,0,137,32c0,0,113,54,113,178V406c0,0,-25,-16,-64,-26c0,0,-39,-11,-76,-15L374,355c0,0,-73,-10,-110,-30c0,0,-63,-35,-63,-112c0,0,0,-58,43,-92c0,0,43,-33,101,-33ZM314,-25c0,0,-111,0,-182,66c0,0,-70,67,-70,169c0,0,0,111,69,172c0,0,69,61,182,75l214,27c0,0,47,6,62,38c0,0,9,18,9,52c0,0,0,69,-48,100c0,0,-49,31,-140,31c0,0,-105,0,-149,-57c0,0,-25,-31,-32,-94H104c0,0,3,148,95,206c0,0,92,58,214,58c0,0,140,0,228,-53c0,0,87,-54,87,-167V137c0,0,0,-21,9,-33c0,0,9,-13,36,-13c0,0,9,0,20,1c0,0,12,1,24,3V-3c0,0,-31,-9,-47,-11c0,0,-17,-3,-45,-3c0,0,-69,0,-101,49c0,0,-16,26,-23,74c0,0,-41,-54,-118,-93c0,0,-77,-38,-169,-38Z"
id="f0_j"
transform="scale(0.001,-0.001)"/>

<path d="M385,-29c0,0,-181,0,-256,80c0,0,-75,81,-80,200H178c0,0,6,-67,34,-103c0,0,52,-65,180,-65c0,0,76,0,134,33c0,0,58,32,58,100c0,0,0,51,-46,78c0,0,-30,16,-117,38L312,359c0,0,-103,25,-153,56c0,0,-88,55,-88,151c0,0,0,113,83,183c0,0,83,70,223,70c0,0,183,0,264,-105c0,0,51,-67,49,-145H563c0,0,-4,45,-33,82c0,0,-47,53,-164,53c0,0,-78,0,-118,-29c0,0,-40,-29,-40,-77c0,0,0,-52,53,-83c0,0,30,-18,90,-33l90,-21c0,0,147,-35,197,-68c0,0,79,-51,79,-162c0,0,0,-106,-82,-184c0,0,-82,-76,-250,-76Z"
id="f0_u"
transform="scale(0.001,-0.001)"/>

<path d="M287,-12c0,0,-94,0,-127,47c0,0,-34,49,-34,125V689H18V799H126v223H262V799H389V689H262V168c0,0,0,-42,28,-56c0,0,16,-8,52,-8c0,0,10,0,21,0c0,0,11,1,26,3V0c0,0,-23,-6,-48,-9c0,0,-25,-3,-54,-3Z"
id="f0_v"
transform="scale(0.001,-0.001)"/>

<path d="M640,462c0,0,-8,88,-37,140c0,0,-55,97,-183,97c0,0,-92,0,-155,-67c0,0,-62,-66,-66,-170ZM408,-27c0,0,-149,0,-252,107C156,80,53,189,53,384c0,0,0,192,104,312c0,0,104,120,271,120c0,0,85,0,164,-40c0,0,79,-39,121,-103c0,0,40,-60,53,-141c0,0,12,-55,12,-176H197c0,0,3,-122,57,-195c0,0,53,-74,165,-74c0,0,105,0,167,70c0,0,35,40,50,93H768c0,0,-6,-44,-35,-98c0,0,-30,-54,-66,-88C667,64,606,4,517,-15c0,0,-49,-12,-109,-12Z"
id="f0_m"
transform="scale(0.001,-0.001)"/>

<path d="M103,0V799H230V660c0,0,15,41,77,99c0,0,61,57,141,57c0,0,4,0,13,0c0,0,9,-1,31,-3V671c0,0,-12,2,-22,3c0,0,-10,1,-22,1c0,0,-102,0,-157,-66c0,0,-54,-65,-54,-150V0Z"
id="f0_t"
transform="scale(0.001,-0.001)"/>

<path d="M131,0V1096H927V962H276V629H878V502H276V130H938V0Z"
id="f0_d"
transform="scale(0.001,-0.001)"/>

<path d="M387,-22c0,0,-156,0,-250,113c0,0,-93,114,-93,286c0,0,0,210,102,327c0,0,102,117,261,117c0,0,135,0,220,-65c0,0,84,-66,101,-226H597c0,0,-11,74,-54,122c0,0,-43,49,-137,49c0,0,-128,0,-183,-125c0,0,-36,-81,-36,-200c0,0,0,-120,51,-202c0,0,50,-82,159,-82c0,0,84,0,133,51c0,0,49,51,67,140H728C728,283,706,124,616,50c0,0,-89,-72,-229,-72Z"
id="f0_l"
transform="scale(0.001,-0.001)"/>

<path d="M357,-20c0,0,-167,0,-228,113c0,0,-33,61,-33,163V799H233V268c0,0,0,-61,19,-100c0,0,34,-71,130,-71c0,0,136,0,186,125c0,0,27,67,27,184V799H728V0H602l2,118c0,0,-26,-46,-64,-77c0,0,-75,-61,-183,-61Z"
id="f0_w"
transform="scale(0.001,-0.001)"/>

<path d="M99,0V795H236V0Zm0,944v152H236V944Z"
id="f0_o"
transform="scale(0.001,-0.001)"/>

<path d="M413,87c0,0,132,0,181,101c0,0,49,101,49,224c0,0,0,112,-35,182c0,0,-56,110,-194,110c0,0,-121,0,-177,-94c0,0,-55,-94,-55,-226c0,0,0,-127,55,-212c0,0,56,-85,176,-85ZM400,-27c0,0,-163,0,-260,110c0,0,-96,111,-96,299c0,0,0,201,101,320c0,0,102,119,273,119c0,0,153,0,259,-102c0,0,106,-103,106,-303c0,0,0,-193,-93,-318C690,98,597,-27,400,-27Z"
id="f0_s"
transform="scale(0.001,-0.001)"/>

<path d="M99,0V799H226V685c0,0,57,70,120,101c0,0,64,30,141,30c0,0,170,0,230,-118c0,0,33,-65,33,-186V0H613V503c0,0,0,73,-22,118c0,0,-35,74,-129,74c0,0,-48,0,-79,-9c0,0,-55,-17,-97,-66c0,0,-33,-40,-43,-82c0,0,-10,-42,-10,-120V0Z"
id="f0_r"
transform="scale(0.001,-0.001)"/>

<path d="M394,0V966H24v130H914V966H545V0Z"
id="f0_h"
transform="scale(0.001,-0.001)"/>

<path d="M99,0V799H231V685c0,0,48,59,86,86c0,0,67,45,151,45c0,0,96,0,154,-47c0,0,33,-26,60,-78c0,0,45,64,106,95c0,0,60,30,135,30c0,0,162,0,220,-116c0,0,31,-63,31,-168V0H1034V555c0,0,0,80,-39,109c0,0,-40,30,-98,30c0,0,-79,0,-136,-53c0,0,-57,-53,-57,-176V0H567V521c0,0,0,81,-19,118c0,0,-31,56,-115,56c0,0,-76,0,-138,-58c0,0,-62,-59,-62,-213V0Z"
id="f0_q"
transform="scale(0.001,-0.001)"/>

<path d="M364,-310c0,0,-109,170,-135,217c0,0,-26,47,-57,127c0,0,-42,110,-58,235c0,0,-8,65,-8,124c0,0,0,221,69,393c0,0,44,110,184,329h93c0,0,-117,-228,-153,-335c0,0,-53,-164,-53,-378c0,0,0,-216,61,-395c0,0,37,-110,147,-317Z"
id="f0_4"
transform="scale(0.001,-0.001)"/>

<path d="M53,-310c0,0,119,231,153,336c0,0,52,161,52,376c0,0,0,216,-60,395c0,0,-38,110,-147,318h90c0,0,115,-184,139,-227c0,0,24,-43,53,-118c0,0,35,-93,51,-184c0,0,15,-91,15,-176c0,0,0,-220,-70,-393c0,0,-44,-111,-183,-327Z"
id="f0_5"
transform="scale(0.001,-0.001)"/>

<path d="M68,327V452H847V327Z"
id="f1_2"
transform="scale(0.001,-0.001)"/>

<path d="M397,-27c0,0,-190,0,-275,103L36,329H176c0,0,9,-104,39,-151c0,0,52,-84,189,-84c0,0,106,0,170,57c0,0,65,56,65,146c0,0,0,110,-68,154c0,0,-67,44,-187,44c0,0,-14,0,-28,-1c0,0,-13,0,-27,-1V611c0,0,20,-2,35,-2c0,0,14,-1,30,-1c0,0,75,0,124,24c0,0,84,42,84,149c0,0,0,80,-56,123c0,0,-57,43,-132,43c0,0,-135,0,-186,-89c0,0,-29,-50,-32,-141H63c0,0,0,119,47,203c0,0,83,150,289,150c0,0,164,0,254,-73c0,0,89,-73,89,-211c0,0,0,-98,-53,-159c0,0,-33,-38,-85,-60c0,0,84,-23,132,-89c0,0,47,-66,47,-161c0,0,0,-153,-101,-249c0,0,-100,-95,-285,-95Z"
id="f0_a"
transform="scale(0.001,-0.001)"/>

<path d="M48,0c0,0,7,138,57,240c0,0,50,103,194,186l143,83c0,0,96,56,135,95c0,0,61,62,61,142c0,0,0,94,-56,149c0,0,-56,54,-149,54c0,0,-138,0,-191,-104c0,0,-28,-56,-31,-156H74c0,0,3,140,52,228c0,0,87,155,308,155c0,0,183,0,268,-99c0,0,84,-100,84,-221c0,0,0,-128,-90,-219c0,0,-52,-53,-187,-129L407,348c0,0,-73,-40,-115,-77c0,0,-75,-65,-94,-144H781V0Z"
id="f0_9"
transform="scale(0.001,-0.001)"/>

<path d="M472,419l69,256H376L307,419ZM83,0l89,332H0l22,87H195l69,256H93l23,87H289l89,334H489L399,762H564l92,334H765L674,762H848L824,675H651L582,419H755L731,332H560L468,0H359l90,332H283L194,0Z"
id="f0_3"
transform="scale(0.001,-0.001)"/>

<path d="M303,0L8,799H164L378,148L601,799H748L446,0Z"
id="f0_x"
transform="scale(0.001,-0.001)"/>

<path d="M437,93c0,0,109,0,163,86c0,0,54,87,54,229c0,0,0,126,-54,208c0,0,-54,83,-160,83c0,0,-91,0,-161,-68c0,0,-69,-68,-69,-223c0,0,0,-113,29,-183c0,0,53,-132,198,-132Zm8,-117c0,0,-91,0,-154,42c0,0,-37,27,-80,84V0H87V1100H218V701c0,0,44,58,105,88c0,0,62,30,133,30c0,0,150,0,243,-102c0,0,93,-103,93,-303c0,0,0,-189,-92,-314c0,0,-92,-124,-255,-124Z"
id="f0_k"
transform="scale(0.001,-0.001)"/>

<path d="M103,0V1096H237V0Z"
id="f0_p"
transform="scale(0.001,-0.001)"/>


</defs>
<path d="M0,0
L0,440
L550,440
L550,0 Z " 
fill="#FFFFFF" stroke="none"/>
<g clip-path="url(#c_1)">
<g clip-path="url(#c1)">
<path d="M210.1,384.5V15.3M347.5,384.5V15.3M484.8,384.5V15.3" class="g0"/>
<path d="M73.8,372.3H526.2M73.8,319.7H526.2M73.8,267H526.2M73.8,214.3H526.2M73.8,161.6H526.2M73.8,108.9H526.2M73.8,56.3H526.2" class="g1"/>
</g>
<path d="M127.4,341.6l82.7,-38.4l48.4,-26.6l34.3,-19.5l26.6,-15.4l21.8,-13.2L359.6,217l15.9,-9.7l14.1,-9l12.5,-8.4l11.4,-7.4l10.4,-6.2l9.5,-7l8.9,-5.7l8.2,-5.7l7.7,-5.2l7.2,-5.6l6.9,-5.6l6.4,-4.7l6.1,-3.7" class="g2"/>
<path d="M122.8,346.1H132V337h-9.2v9.1Zm82.7,-38.3h9.2v-9.2h-9.2v9.2Zm48.4,-26.7h9.2V272h-9.2v9.1Zm34.3,-19.4h9.2v-9.2h-9.2v9.2Zm26.7,-15.4H324v-9.2h-9.1v9.2Zm21.7,-13.2h9.2v-9.2h-9.2v9.2ZM355,221.6h9.2v-9.2H355v9.2Zm15.9,-9.7h9.2v-9.2h-9.2v9.2Zm14.1,-9h9.1v-9.2H385v9.2Zm12.5,-8.4h9.2v-9.2h-9.2v9.2Zm11.4,-7.4h9.2V178h-9.2v9.1Zm10.4,-6.2h9.2v-9.1h-9.2v9.1Zm9.5,-7H438v-9.2h-9.2v9.2Zm8.9,-5.7h9.2V159h-9.2v9.2Zm8.2,-5.7h9.2v-9.2h-9.2v9.2Zm7.7,-5.2h9.2v-9.2h-9.2v9.2Zm7.2,-5.7H470v-9.1h-9.2v9.1Zm6.9,-5.5h9.1v-9.2h-9.1v9.2Zm6.4,-4.7h9.2v-9.2h-9.2v9.2Zm6.1,-3.7h9.2v-9.2h-9.2v9.2Z" class="g3"/>
<path d="M127.4,285.5l82.7,-66L258.5,170l34.3,-37.1l26.6,-32.3L341.2,76.7L359.6,55.3" class="g4"/>
<path d="M132,285.5v0c0,2.5,-2,4.5,-4.6,4.5c-2.5,0,-4.6,-2,-4.6,-4.5c0,-2.6,2.1,-4.6,4.6,-4.6c2.6,0,4.6,2,4.6,4.6Z" class="g5"/>
<path d="M214.7,219.5v0c0,2.6,-2,4.6,-4.6,4.6c-2.5,0,-4.6,-2,-4.6,-4.6c0,-2.5,2.1,-4.5,4.6,-4.5c2.6,0,4.6,2,4.6,4.5Z" class="g5"/>
<path d="M263.1,170v0c0,2.5,-2.1,4.6,-4.6,4.6c-2.5,0,-4.6,-2.1,-4.6,-4.6c0,-2.5,2.1,-4.6,4.6,-4.6c2.5,0,4.6,2.1,4.6,4.6Z" class="g5"/>
<path d="M297.4,132.9v0c0,2.5,-2.1,4.6,-4.6,4.6c-2.5,0,-4.6,-2.1,-4.6,-4.6c0,-2.5,2.1,-4.6,4.6,-4.6c2.5,0,4.6,2.1,4.6,4.6Z" class="g5"/>
<path d="M324,100.6v0c0,2.5,-2,4.5,-4.6,4.5c-2.5,0,-4.5,-2,-4.5,-4.5c0,-2.6,2,-4.6,4.5,-4.6c2.6,0,4.6,2,4.6,4.6Z" class="g5"/>
<path d="M345.8,76.7v0c0,2.6,-2.1,4.6,-4.6,4.6c-2.5,0,-4.6,-2,-4.6,-4.6c0,-2.5,2.1,-4.6,4.6,-4.6c2.5,0,4.6,2.1,4.6,4.6Z" class="g5"/>
<path d="M364.2,55.3v0c0,2.5,-2.1,4.6,-4.6,4.6C357,59.9,355,57.8,355,55.3c0,-2.6,2,-4.6,4.6,-4.6c2.5,0,4.6,2,4.6,4.6Z" class="g5"/>
<path d="M339,354.3H510.1V304.8H339v49.5Z" class="g6"/>
<path d="M339,354.3H510.1V304.8H339v49.5Z" class="g7"/>
<path d="M346.3,318.5h22" class="g2"/>
<path d="M352.8,323.1h9.1V314h-9.1v9.1Z" class="g3"/>
<g fill="#000000"  clip-path="url(#c0)">
<use xlink:href="#f0_f" transform="matrix(12,0,0,12,375.7,324.7)"/>
<use xlink:href="#f0_z" transform="matrix(12,0,0,12,387.9,324.7)"/>
<use xlink:href="#f0_g" transform="matrix(12,0,0,12,397.1,324.7)"/>
<use xlink:href="#f0_i" transform="matrix(12,0,0,12,411.3,324.7)"/>
<use xlink:href="#f0_c" transform="matrix(12,0,0,12,424.6,324.7)"/>
<use xlink:href="#f0_e" transform="matrix(12,0,0,12,436.8,324.7)"/>
<use xlink:href="#f0_8" transform="matrix(12,0,0,12,456.2,324.7)"/>
<use xlink:href="#f0_6" transform="matrix(12,0,0,12,466.4,324.7)"/>
<use xlink:href="#f0_7" transform="matrix(12,0,0,12,471.4,324.7)"/>
<use xlink:href="#f0_6" transform="matrix(12,0,0,12,481.6,324.7)"/>
<use xlink:href="#f0_7" transform="matrix(12,0,0,12,486.7,324.7)"/>
</g>
<text clip-path="url(#c0)" x="375" y="324" class="s1">PyQUBO 1.0.0</text>
<path d="M346.3,340.5h22" class="g4"/>
<path d="M361.9,340.5v0c0,2.6,-2,4.6,-4.5,4.6c-2.6,0,-4.6,-2,-4.6,-4.6c0,-2.5,2,-4.5,4.6,-4.5c2.5,0,4.5,2,4.5,4.5Z" class="g5"/>
<g fill="#000000"  clip-path="url(#c0)">
<use xlink:href="#f0_f" transform="matrix(12,0,0,12,375.7,346.7)"/>
<use xlink:href="#f0_z" transform="matrix(12,0,0,12,387.9,346.7)"/>
<use xlink:href="#f0_g" transform="matrix(12,0,0,12,397.1,346.7)"/>
<use xlink:href="#f0_i" transform="matrix(12,0,0,12,411.3,346.7)"/>
<use xlink:href="#f0_c" transform="matrix(12,0,0,12,424.6,346.7)"/>
<use xlink:href="#f0_e" transform="matrix(12,0,0,12,436.8,346.7)"/>
<use xlink:href="#f0_7" transform="matrix(12,0,0,12,456.2,346.7)"/>
<use xlink:href="#f0_6" transform="matrix(12,0,0,12,466.4,346.7)"/>
<use xlink:href="#f0_b" transform="matrix(12,0,0,12,471.4,346.7)"/>
<use xlink:href="#f0_6" transform="matrix(12,0,0,12,481.6,346.7)"/>
<use xlink:href="#f0_7" transform="matrix(12,0,0,12,486.7,346.7)"/>
</g>
<text clip-path="url(#c0)" x="375" y="346" class="s1">PyQUBO 0.4.0</text>
<path d="M361.4,64.1V195.4m0,-131.3V195.4m6.9,-11.9l-6.9,11.9l-6.8,-11.9" class="g8"/>
<g fill="#000000" >
<use xlink:href="#f0_y" transform="matrix(14,0,0,14,376.3,105.5)"/>
<use xlink:href="#f0_8" transform="matrix(14,0,0,14,387,105.5)"/>
<use xlink:href="#f0_7" transform="matrix(14,0,0,14,398.9,105.5)"/>
<use xlink:href="#f0_7" transform="matrix(14,0,0,14,410.8,105.5)"/>
<use xlink:href="#f0_7" transform="matrix(14,0,0,14,422.7,105.5)"/>
<use xlink:href="#f0_n" transform="matrix(14,0,0,14,440.5,105.5)"/>
<use xlink:href="#f0_j" transform="matrix(14,0,0,14,446.5,105.5)"/>
<use xlink:href="#f0_u" transform="matrix(14,0,0,14,458.4,105.5)"/>
<use xlink:href="#f0_v" transform="matrix(14,0,0,14,469.1,105.5)"/>
<use xlink:href="#f0_m" transform="matrix(14,0,0,14,475,105.5)"/>
<use xlink:href="#f0_t" transform="matrix(14,0,0,14,486.9,105.5)"/>
<use xlink:href="#f0_d" transform="matrix(0,-12,12,0,20.4,285.5)"/>
</g>
<text x="376" y="105" class="s2">x1000 faster</text>
<g fill="#000000" >
<use xlink:href="#f0_y" transform="matrix(0,-12,12,0,20.4,273.3)"/>
<use xlink:href="#f0_m" transform="matrix(0,-12,12,0,20.4,264.1)"/>
<use xlink:href="#f0_l" transform="matrix(0,-12,12,0,20.4,253.9)"/>
<use xlink:href="#f0_w" transform="matrix(0,-12,12,0,20.4,244.7)"/>
<use xlink:href="#f0_v" transform="matrix(0,-12,12,0,20.4,234.5)"/>
<use xlink:href="#f0_o" transform="matrix(0,-12,12,0,20.4,229.4)"/>
<use xlink:href="#f0_s" transform="matrix(0,-12,12,0,20.4,225.4)"/>
<use xlink:href="#f0_r" transform="matrix(0,-12,12,0,20.4,215.2)"/>
<use xlink:href="#f0_h" transform="matrix(0,-12,12,0,20.4,200.2)"/>
<use xlink:href="#f0_o" transform="matrix(0,-12,12,0,20.4,189.7)"/>
<use xlink:href="#f0_q" transform="matrix(0,-12,12,0,20.4,185.6)"/>
<use xlink:href="#f0_m" transform="matrix(0,-12,12,0,20.4,170.3)"/>
<use xlink:href="#f0_4" transform="matrix(0,-12,12,0,20.4,155)"/>
<use xlink:href="#f0_u" transform="matrix(0,-12,12,0,20.4,148.9)"/>
<use xlink:href="#f0_m" transform="matrix(0,-12,12,0,20.4,139.8)"/>
<use xlink:href="#f0_l" transform="matrix(0,-12,12,0,20.4,129.6)"/>
<use xlink:href="#f0_5" transform="matrix(0,-12,12,0,20.4,120.4)"/>
<use xlink:href="#f0_8" transform="matrix(12,0,0,12,31.6,378.5)"/>
</g>
<text transform="matrix(0,-1,1,0,20,285)" dx="0,0,0,0,0,0,0,0,0,0,-.3,-.7,0,0,0,0,0,0,0,0" class="s1">Execution Time (sec)</text>
<g fill="#000000" >
<use xlink:href="#f0_7" transform="matrix(12,0,0,12,41.8,378.5)"/>
<use xlink:href="#f1_2" transform="matrix(9,0,0,9,52,369.3)"/>
</g>
<text x="31" y="378" class="s1">10</text>
<g fill="#000000" >
<use xlink:href="#f0_a" transform="matrix(9,0,0,9,60.1,369.3)"/>
</g>
<text x="52" y="369" class="s3">−</text>
<g fill="#000000" >
<use xlink:href="#f0_8" transform="matrix(12,0,0,12,31.6,325.9)"/>
</g>
<text x="60" y="369" class="s4">3</text>
<g fill="#000000" >
<use xlink:href="#f0_7" transform="matrix(12,0,0,12,41.8,325.9)"/>
<use xlink:href="#f1_2" transform="matrix(9,0,0,9,52,316.7)"/>
</g>
<text x="31" y="325" class="s1">10</text>
<g fill="#000000" >
<use xlink:href="#f0_9" transform="matrix(9,0,0,9,60.1,316.7)"/>
</g>
<text x="52" y="316" class="s3">−</text>
<g fill="#000000" >
<use xlink:href="#f0_8" transform="matrix(12,0,0,12,31.6,273.2)"/>
</g>
<text x="60" y="316" class="s4">2</text>
<g fill="#000000" >
<use xlink:href="#f0_7" transform="matrix(12,0,0,12,41.8,273.2)"/>
<use xlink:href="#f1_2" transform="matrix(9,0,0,9,52,264)"/>
</g>
<text x="31" y="273" class="s1">10</text>
<g fill="#000000" >
<use xlink:href="#f0_8" transform="matrix(9,0,0,9,60.1,264)"/>
</g>
<text x="52" y="263" class="s3">−</text>
<g fill="#000000" >
<use xlink:href="#f0_8" transform="matrix(12,0,0,12,57.5,220.5)"/>
</g>
<text x="60" y="263" class="s4">1</text>
<g fill="#000000" >
<use xlink:href="#f0_8" transform="matrix(12,0,0,12,39.7,167.8)"/>
</g>
<text x="57" y="220" class="s1">1</text>
<g fill="#000000" >
<use xlink:href="#f0_7" transform="matrix(12,0,0,12,49.9,167.8)"/>
<use xlink:href="#f0_8" transform="matrix(9,0,0,9,60.1,158.6)"/>
</g>
<text x="39" y="167" class="s1">10</text>
<g fill="#000000" >
<use xlink:href="#f0_8" transform="matrix(12,0,0,12,39.7,115.2)"/>
</g>
<text x="60" y="158" class="s4">1</text>
<g fill="#000000" >
<use xlink:href="#f0_7" transform="matrix(12,0,0,12,49.9,115.2)"/>
<use xlink:href="#f0_9" transform="matrix(9,0,0,9,60.1,106)"/>
</g>
<text x="39" y="115" class="s1">10</text>
<g fill="#000000" >
<use xlink:href="#f0_8" transform="matrix(12,0,0,12,39.7,62.5)"/>
</g>
<text x="60" y="105" class="s4">2</text>
<g fill="#000000" >
<use xlink:href="#f0_7" transform="matrix(12,0,0,12,49.9,62.5)"/>
<use xlink:href="#f0_a" transform="matrix(9,0,0,9,60.1,53.3)"/>
</g>
<text x="39" y="62" class="s1">10</text>
<text x="60" y="53" class="s4">3</text>
<path d="M73.8,384h6.1m-6.1,-3.5h6.1m-6.1,-3.1h6.1m-6.1,-2.7h6.1m-6.1,-2.4H86M73.8,356.5h6.1m-6.1,-9.3h6.1m-6.1,-6.6h6.1m-6.1,-5.1h6.1m-6.1,-4.2h6.1m-6.1,-3.5h6.1m-6.1,-3h6.1m-6.1,-2.7h6.1m-6.1,-2.4H86M73.8,303.8h6.1m-6.1,-9.3h6.1m-6.1,-6.6h6.1m-6.1,-5.1h6.1m-6.1,-4.1h6.1m-6.1,-3.6h6.1m-6.1,-3h6.1m-6.1,-2.7h6.1M73.8,267H86M73.8,251.1h6.1m-6.1,-9.3h6.1m-6.1,-6.5h6.1m-6.1,-5.1h6.1M73.8,226h6.1m-6.1,-3.5h6.1m-6.1,-3.1h6.1m-6.1,-2.7h6.1m-6.1,-2.4H86M73.8,198.4h6.1m-6.1,-9.2h6.1m-6.1,-6.6h6.1m-6.1,-5.1h6.1m-6.1,-4.2h6.1m-6.1,-3.5h6.1m-6.1,-3.1h6.1M73.8,164h6.1m-6.1,-2.4H86M73.8,145.8h6.1m-6.1,-9.3h6.1m-6.1,-6.6h6.1m-6.1,-5.1h6.1m-6.1,-4.2h6.1m-6.1,-3.5h6.1m-6.1,-3h6.1m-6.1,-2.7h6.1m-6.1,-2.5H86M73.8,93.1h6.1M73.8,83.8h6.1M73.8,77.2h6.1M73.8,72.1h6.1M73.8,68h6.1M73.8,64.4h6.1m-6.1,-3h6.1M73.8,58.7h6.1M73.8,56.3H86M73.8,40.4h6.1M73.8,31.1h6.1M73.8,24.6h6.1M73.8,19.4h6.1M73.8,15.3h6.1M526.2,384h-6.1m6.1,-3.5h-6.1m6.1,-3.1h-6.1m6.1,-2.7h-6.1m-6.2,-2.4h12.3m0,-15.8h-6.1m6.1,-9.3h-6.1m6.1,-6.6h-6.1m6.1,-5.1h-6.1m6.1,-4.2h-6.1m6.1,-3.5h-6.1m6.1,-3h-6.1m6.1,-2.7h-6.1m-6.2,-2.4h12.3m0,-15.9h-6.1m6.1,-9.3h-6.1m6.1,-6.6h-6.1m6.1,-5.1h-6.1m6.1,-4.1h-6.1m6.1,-3.6h-6.1m6.1,-3h-6.1m6.1,-2.7h-6.1M513.9,267h12.3m0,-15.9h-6.1m6.1,-9.3h-6.1m6.1,-6.5h-6.1m6.1,-5.1h-6.1m6.1,-4.2h-6.1m6.1,-3.5h-6.1m6.1,-3.1h-6.1m6.1,-2.7h-6.1m-6.2,-2.4h12.3m0,-15.9h-6.1m6.1,-9.2h-6.1m6.1,-6.6h-6.1m6.1,-5.1h-6.1m6.1,-4.2h-6.1m6.1,-3.5h-6.1m6.1,-3.1h-6.1m6.1,-2.7h-6.1m-6.2,-2.4h12.3m0,-15.8h-6.1m6.1,-9.3h-6.1m6.1,-6.6h-6.1m6.1,-5.1h-6.1m6.1,-4.2h-6.1m6.1,-3.5h-6.1m6.1,-3h-6.1m6.1,-2.7h-6.1m-6.2,-2.5h12.3m0,-15.8h-6.1m6.1,-9.3h-6.1m6.1,-6.6h-6.1m6.1,-5.1h-6.1M526.2,68h-6.1m6.1,-3.6h-6.1m6.1,-3h-6.1m6.1,-2.7h-6.1m-6.2,-2.4h12.3m0,-15.9h-6.1m6.1,-9.3h-6.1m6.1,-6.5h-6.1m6.1,-5.2h-6.1m6.1,-4.1h-6.1" class="g7"/>
<g fill="#000000" >
<use xlink:href="#f0_3" transform="matrix(12,0,0,12,258.2,429.1)"/>
<use xlink:href="#f0_x" transform="matrix(12,0,0,12,268.4,429.1)"/>
<use xlink:href="#f0_j" transform="matrix(12,0,0,12,277.6,429.1)"/>
<use xlink:href="#f0_t" transform="matrix(12,0,0,12,287.8,429.1)"/>
<use xlink:href="#f0_o" transform="matrix(12,0,0,12,293.9,429.1)"/>
<use xlink:href="#f0_j" transform="matrix(12,0,0,12,297.9,429.1)"/>
<use xlink:href="#f0_k" transform="matrix(12,0,0,12,308.1,429.1)"/>
<use xlink:href="#f0_p" transform="matrix(12,0,0,12,318.3,429.1)"/>
<use xlink:href="#f0_m" transform="matrix(12,0,0,12,322.4,429.1)"/>
<use xlink:href="#f0_u" transform="matrix(12,0,0,12,332.6,429.1)"/>
<use xlink:href="#f0_8" transform="matrix(12,0,0,12,196.1,405.2)"/>
</g>
<text x="258" y="429" class="s1">#variables</text>
<g fill="#000000" >
<use xlink:href="#f0_7" transform="matrix(12,0,0,12,206.3,405.2)"/>
<use xlink:href="#f0_9" transform="matrix(9,0,0,9,216.5,396)"/>
</g>
<text x="196" y="405" class="s1">10</text>
<g fill="#000000" >
<use xlink:href="#f0_8" transform="matrix(12,0,0,12,333.5,405.2)"/>
</g>
<text x="216" y="395" class="s4">2</text>
<g fill="#000000" >
<use xlink:href="#f0_7" transform="matrix(12,0,0,12,343.6,405.2)"/>
<use xlink:href="#f0_a" transform="matrix(9,0,0,9,353.8,396)"/>
</g>
<text x="333" y="405" class="s1">10</text>
<g fill="#000000" >
<use xlink:href="#f0_8" transform="matrix(12,0,0,12,470.8,405.2)"/>
</g>
<text x="353" y="395" class="s4">3</text>
<g fill="#000000" >
<use xlink:href="#f0_7" transform="matrix(12,0,0,12,481,405.2)"/>
<use xlink:href="#f0_b" transform="matrix(9,0,0,9,491.2,396)"/>
</g>
<text x="470" y="405" class="s1">10</text>
<text x="491" y="395" class="s4">4</text>
<path d="M114.1,384.5v-6.1m24.2,6.1v-6.1m17.2,6.1v-6.1m13.3,6.1v-6.1m10.9,6.1v-6.1m9.1,6.1v-6.1m8,6.1v-6.1m7,6.1v-6.1m6.3,6.1V372.3m41.4,12.2v-6.1m24.2,6.1v-6.1m17.1,6.1v-6.1m13.3,6.1v-6.1m10.9,6.1v-6.1m9.2,6.1v-6.1m8,6.1v-6.1m7,6.1v-6.1m6.3,6.1V372.3m41.3,12.2v-6.1m24.2,6.1v-6.1m17.2,6.1v-6.1m13.3,6.1v-6.1m10.9,6.1v-6.1m9.1,6.1v-6.1m8,6.1v-6.1m7,6.1v-6.1m6.3,6.1V372.3m41.4,12.2v-6.1M210.1,27.5V15.3M347.5,27.5V15.3M484.8,27.5V15.3m-370.7,0v6.1m24.2,-6.1v6.1m17.2,-6.1v6.1m13.3,-6.1v6.1m10.9,-6.1v6.1m9.1,-6.1v6.1m8,-6.1v6.1m7,-6.1v6.1m47.7,-6.1v6.1m24.2,-6.1v6.1m17.1,-6.1v6.1m13.3,-6.1v6.1M317,15.3v6.1m9.2,-6.1v6.1m8,-6.1v6.1m7,-6.1v6.1m47.6,-6.1v6.1M413,15.3v6.1m17.2,-6.1v6.1m13.3,-6.1v6.1m10.9,-6.1v6.1m9.1,-6.1v6.1m8,-6.1v6.1m7,-6.1v6.1m47.7,-6.1v6.1" class="g7"/>
<path d="M526.2,384.5V15.3H73.8V384.5H526.2Z" class="g9"/>

</g>

<!-- Any embedded fonts defined here -->
<style type="text/css" ><![CDATA[

@font-face {
	font-family: Helvetica_k;
	src: url("fonts/Helvetica_k.woff") format("woff");
}

@font-face {
	font-family: Helvetica_p;
	src: url("fonts/Helvetica_p.woff") format("woff");
}

]]></style>

</svg>
